<?xml version="1.0" encoding="UTF-8" ?>
<!DOCTYPE svg PUBLIC "-//W3C//DTD SVG 1.1//EN" "http://www.w3.org/Graphics/SVG/1.1/DTD/svg11.dtd">
<svg width="288pt" height="72pt" viewBox="0 0 288 72" version="1.1" xmlns="http://www.w3.org/2000/svg">
<path fill="#000000" d=" M 0.00 0.00 L 71.74 0.00 C 71.67 23.77 71.81 47.55 71.67 71.32 C 47.78 71.67 23.89 71.33 0.00 71.48 L 0.00 0.00 Z" />
<path fill="#ffffff" d=" M 71.74 0.00 L 288.00 0.00 L 288.00 72.00 L 0.00 72.00 L 0.00 71.48 C 23.89 71.33 47.78 71.67 71.67 71.32 C 71.81 47.55 71.67 23.77 71.74 0.00 Z" />
<path fill="#ffffff" d=" M 22.09 8.11 C 26.96 4.17 33.59 4.85 39.44 4.39 C 40.19 6.53 40.71 8.74 41.44 10.89 C 40.60 12.08 40.09 13.47 40.22 14.94 C 40.17 21.53 40.28 28.13 40.22 34.72 C 44.32 34.85 48.89 34.20 52.55 36.41 C 56.60 39.59 55.29 45.96 51.37 48.68 C 53.99 51.08 56.90 54.12 56.43 57.99 C 56.48 62.33 52.05 65.13 48.13 65.38 C 42.36 65.73 36.57 65.42 30.80 65.57 C 30.80 57.78 30.75 49.99 30.80 42.20 L 29.34 42.37 C 31.14 37.01 31.78 31.41 31.40 25.77 C 28.78 25.77 26.16 25.79 23.54 25.84 C 24.16 29.06 25.38 32.10 26.82 35.02 C 24.43 36.50 22.10 38.05 19.77 39.61 C 17.35 35.71 15.66 31.43 14.72 26.94 C 14.75 24.98 14.75 23.02 14.75 21.05 C 15.98 16.21 17.74 11.04 22.09 8.11 Z" />
<path fill="#000000" d=" M 110.00 7.46 C 111.77 7.49 113.55 7.50 115.32 7.51 C 115.72 15.80 115.37 24.11 115.52 32.41 C 115.40 33.86 115.92 35.56 114.81 36.73 C 113.22 36.86 111.62 36.82 110.02 36.85 C 109.97 27.05 110.02 17.25 110.00 7.46 Z" />
<path fill="#000000" d=" M 164.25 7.53 C 168.41 7.39 172.57 7.61 176.73 7.43 C 179.13 8.39 181.42 10.22 181.53 13.03 C 181.98 15.99 179.97 18.41 178.86 20.96 C 181.14 23.80 183.61 27.48 182.25 31.28 C 181.94 33.18 180.92 35.21 178.95 35.79 C 173.83 37.32 168.42 36.76 163.16 36.66 C 163.30 29.44 163.25 22.22 163.19 15.00 C 165.32 15.00 167.45 15.00 169.59 15.00 C 169.52 16.93 169.44 18.87 169.34 20.80 C 170.55 20.10 171.76 19.40 172.97 18.71 C 173.61 17.22 174.16 15.70 174.61 14.14 C 170.46 13.89 166.30 14.03 162.14 14.00 C 163.06 11.96 162.32 8.94 164.25 7.53 Z" />
<path fill="#000000" d=" M 79.29 20.20 C 80.45 13.97 85.45 7.98 92.08 7.57 C 93.84 7.45 95.61 7.47 97.39 7.46 C 97.79 9.68 98.37 11.86 99.02 14.02 C 95.78 14.26 92.11 13.13 89.27 15.18 C 87.24 16.48 86.27 18.76 85.45 20.91 C 87.44 20.98 89.42 21.01 91.41 21.03 C 91.47 19.02 91.51 17.01 91.48 15.00 C 93.65 15.00 95.82 15.00 98.00 15.00 C 98.00 22.27 98.00 29.54 98.00 36.81 C 95.93 36.80 93.86 36.80 91.79 36.77 C 91.38 33.52 91.53 30.25 91.40 26.99 C 89.20 27.00 86.99 27.00 84.79 27.03 C 85.15 30.25 86.27 33.30 87.03 36.42 C 85.64 38.06 83.94 39.40 82.42 40.92 C 78.91 34.61 78.33 27.24 79.29 20.20 Z" />
<path fill="#000000" d=" M 101.23 36.79 C 101.34 27.06 101.03 17.32 101.40 7.59 C 103.26 7.52 105.13 7.49 107.00 7.45 C 107.00 17.23 107.00 27.02 107.00 36.80 C 105.07 36.80 103.15 36.80 101.23 36.79 Z" />
<path fill="#000000" d=" M 225.00 7.45 C 226.86 7.49 228.72 7.51 230.59 7.58 C 230.76 10.02 230.76 12.47 230.82 14.91 C 233.13 15.15 235.81 14.59 237.77 16.17 C 239.37 17.98 239.93 20.46 239.96 22.82 C 240.07 27.49 239.98 32.17 239.98 36.85 C 238.04 36.80 236.10 36.72 234.16 36.66 C 234.29 31.47 234.33 26.27 234.07 21.09 C 233.24 21.01 231.58 20.86 230.75 20.78 C 230.79 26.07 230.68 31.37 230.84 36.66 C 228.90 36.72 226.96 36.80 225.02 36.85 C 224.98 27.05 225.01 17.25 225.00 7.45 Z" />
<path fill="#000000" d=" M 214.43 10.88 C 216.28 10.21 218.15 9.57 220.00 8.87 C 220.00 10.91 220.00 12.96 220.00 15.00 C 220.75 15.00 222.25 15.00 223.00 15.00 C 223.00 16.93 223.00 18.87 223.00 20.80 C 222.25 20.80 220.76 20.80 220.01 20.80 C 220.03 23.80 219.87 26.80 220.08 29.80 C 220.87 30.98 222.29 30.99 223.55 31.22 C 222.89 33.12 223.22 35.50 221.56 36.92 C 219.76 36.74 218.02 36.23 216.28 35.80 C 215.98 35.34 215.39 34.43 215.09 33.97 C 214.39 29.53 214.47 25.04 214.47 20.57 L 213.20 20.81 C 213.56 18.62 212.30 15.72 214.56 14.27 C 214.52 13.14 214.47 12.01 214.43 10.88 Z" />
<path fill="#000000" d=" M 26.82 14.60 C 28.30 13.74 29.79 12.91 31.30 12.11 C 31.38 14.16 31.41 16.20 31.45 18.24 C 29.20 18.20 26.95 18.20 24.70 18.19 C 25.40 16.99 26.12 15.80 26.82 14.60 Z" />
<path fill="#000000" d=" M 124.56 14.44 C 125.03 14.48 125.98 14.57 126.45 14.62 C 127.72 14.84 129.00 15.02 130.29 15.15 C 131.23 16.05 132.15 16.96 133.06 17.88 C 132.93 20.03 133.33 22.33 132.26 24.31 C 131.24 26.93 128.57 28.39 127.24 30.82 C 128.90 30.95 130.58 31.05 132.25 31.12 C 131.82 33.13 131.22 35.09 130.64 37.06 C 126.02 36.82 121.17 35.25 119.17 30.67 C 118.56 28.96 118.00 27.23 117.49 25.49 C 117.50 24.16 117.49 22.83 117.48 21.50 C 117.97 19.76 118.42 17.97 119.43 16.43 C 120.99 15.43 122.80 14.96 124.56 14.44 Z" />
<path fill="#000000" d=" M 135.00 15.01 C 139.43 15.70 145.74 13.08 148.71 17.48 C 150.90 23.62 149.34 30.41 149.68 36.83 C 147.79 36.81 145.89 36.80 144.00 36.79 C 144.00 31.55 144.00 26.31 144.00 21.08 C 143.20 21.00 141.59 20.85 140.79 20.78 C 140.70 26.13 140.87 31.48 140.68 36.83 C 138.79 36.81 136.89 36.80 135.00 36.79 C 135.00 29.53 135.00 22.27 135.00 15.01 Z" />
<path fill="#000000" d=" M 185.00 14.98 C 188.20 15.03 191.39 15.16 194.59 15.00 C 194.44 16.71 194.72 18.49 194.24 20.15 C 193.18 20.92 192.04 21.57 191.01 22.38 C 190.40 27.11 190.89 31.90 190.85 36.65 C 188.90 36.72 186.96 36.80 185.02 36.85 C 184.98 29.56 185.01 22.27 185.00 14.98 Z" />
<path fill="#000000" d=" M 197.46 16.44 C 200.82 14.15 205.56 13.86 209.14 15.70 C 212.82 17.92 212.03 22.59 211.97 26.21 C 211.39 30.40 209.60 34.58 206.06 37.11 C 198.67 38.40 196.14 29.92 195.44 24.26 C 195.63 21.57 195.74 18.67 197.46 16.44 Z" />
<path fill="#000000" d=" M 244.84 15.70 C 249.07 13.42 257.24 13.94 257.50 20.09 C 257.68 24.69 254.34 28.01 251.31 30.98 C 253.04 31.00 254.78 31.00 256.52 31.00 C 256.24 32.34 256.03 33.68 255.84 35.03 C 255.53 35.52 254.90 36.50 254.59 36.99 C 250.42 37.01 246.26 35.31 244.04 31.63 C 241.72 26.75 240.30 19.75 244.84 15.70 Z" />
<path fill="#000000" d=" M 259.46 14.92 C 261.49 14.98 263.56 14.92 265.53 15.54 C 266.61 15.27 267.69 15.00 268.77 14.73 C 268.76 16.71 268.73 18.70 268.75 20.68 C 268.18 20.83 267.04 21.13 266.47 21.28 C 266.10 21.79 265.37 22.79 265.00 23.29 C 264.99 27.81 265.02 32.33 264.98 36.85 C 263.24 36.41 260.39 37.80 259.55 35.70 C 259.38 28.78 259.60 21.85 259.46 14.92 Z" />
<path fill="#000000" d=" M 271.15 16.95 C 272.64 13.89 276.72 15.37 279.45 14.96 C 279.83 16.91 280.28 18.85 280.83 20.76 C 279.33 20.80 277.83 20.84 276.34 20.89 C 278.43 24.94 282.01 28.64 281.06 33.59 C 279.12 37.09 274.89 36.97 271.43 36.86 C 270.93 34.92 270.36 32.99 269.83 31.06 C 271.56 31.01 273.29 30.93 275.02 30.82 C 273.58 26.34 267.63 21.81 271.15 16.95 Z" />
<path fill="#ffffff" d=" M 122.76 22.25 C 124.13 21.16 125.54 20.10 127.18 19.45 C 127.64 22.29 125.99 24.70 123.50 25.93 C 123.22 24.71 122.98 23.48 122.76 22.25 Z" />
<path fill="#ffffff" d=" M 203.34 19.86 C 207.67 20.73 206.15 25.62 205.96 28.77 C 205.09 29.67 204.21 30.56 203.31 31.42 C 202.01 27.85 199.42 22.74 203.34 19.86 Z" />
<path fill="#ffffff" d=" M 247.87 21.07 C 249.35 20.27 250.91 20.03 252.44 20.89 C 251.28 23.00 249.82 24.92 248.06 26.57 C 247.87 24.74 247.82 22.90 247.87 21.07 Z" />
<path fill="#ffffff" d=" M 169.41 23.06 C 169.99 22.50 170.58 21.95 171.18 21.41 L 171.12 22.18 C 173.52 23.41 174.93 25.76 175.66 28.28 C 175.38 31.32 171.49 29.50 169.47 30.03 C 169.52 27.71 169.50 25.38 169.41 23.06 Z" />
<path fill="#000000" d=" M 41.69 41.49 C 41.57 41.67 41.32 42.02 41.20 42.20 C 42.67 42.26 44.15 42.39 45.61 42.61 C 45.16 43.44 44.71 44.28 44.26 45.12 C 43.08 46.04 41.93 46.99 40.75 47.92 C 40.50 48.24 40.01 48.89 39.77 49.22 C 39.64 47.01 39.58 44.80 39.50 42.59 C 40.04 42.31 41.14 41.76 41.69 41.49 Z" />
<path fill="#000000" d=" M 80.29 50.31 C 81.34 48.84 83.30 48.53 84.97 48.31 C 89.02 48.26 93.16 47.93 97.08 49.20 C 97.56 50.68 98.89 52.54 96.80 53.51 C 95.86 52.28 95.65 49.58 93.52 49.85 C 89.65 49.67 85.50 49.10 81.89 50.84 C 81.97 54.29 81.65 57.79 82.53 61.16 C 86.87 61.69 91.27 61.77 95.61 61.17 C 96.03 59.73 96.46 58.26 97.72 57.32 C 97.82 58.70 97.91 60.09 97.96 61.47 C 93.40 64.19 87.85 62.61 82.82 62.91 C 81.96 62.33 81.10 61.76 80.24 61.19 C 79.46 57.60 79.41 53.90 80.29 50.31 Z" />
<path fill="#000000" d=" M 102.61 49.12 C 108.37 47.94 114.68 47.55 120.30 49.59 C 120.73 53.75 122.54 59.66 118.59 62.60 C 113.87 63.19 109.00 63.20 104.26 62.72 C 99.49 61.37 101.38 55.26 101.26 51.59 C 101.60 50.97 102.27 49.73 102.61 49.12 Z" />
<path fill="#000000" d=" M 220.17 51.87 C 219.96 49.16 223.00 48.49 225.10 48.31 C 229.46 48.35 234.20 47.53 238.07 50.07 C 237.98 50.97 237.79 52.77 237.70 53.66 C 236.70 52.43 235.78 51.14 234.74 49.94 C 230.81 49.43 226.84 49.76 222.90 49.95 C 221.51 53.21 222.00 56.80 221.89 60.25 C 226.28 62.38 231.35 61.60 236.02 61.11 C 236.19 60.27 236.55 58.59 236.73 57.75 C 237.22 57.94 238.20 58.31 238.70 58.49 C 238.43 59.41 237.89 61.26 237.63 62.18 C 232.81 63.69 227.69 62.72 222.74 62.96 C 218.84 60.61 220.18 55.66 220.17 51.87 Z" />
<path fill="#000000" d=" M 242.03 48.27 C 242.47 48.55 243.35 49.12 243.79 49.40 C 243.58 53.72 243.82 58.05 243.65 62.37 C 243.29 62.68 242.58 63.30 242.22 63.62 C 241.91 58.51 242.16 53.39 242.03 48.27 Z" />
<path fill="#000000" d=" M 268.91 47.99 C 269.30 48.36 270.09 49.09 270.48 49.45 C 270.38 53.41 270.46 57.37 270.42 61.33 C 274.87 61.34 279.36 60.99 283.78 61.69 C 283.31 61.98 282.35 62.58 281.87 62.87 C 277.36 63.11 272.83 62.85 268.32 62.97 C 268.63 57.99 267.73 52.89 268.91 47.99 Z" />
<path fill="#000000" d=" M 124.40 49.16 C 125.82 47.54 127.77 48.99 128.68 50.39 C 131.31 54.03 134.12 57.55 136.62 61.28 C 139.31 57.40 142.19 53.67 144.98 49.86 C 145.73 48.39 147.51 48.63 148.86 48.31 C 148.94 53.02 149.02 57.74 148.90 62.45 C 148.47 62.72 147.62 63.25 147.19 63.51 C 146.96 59.02 147.09 54.52 147.10 50.02 C 143.80 54.31 140.56 58.66 137.34 63.01 C 137.03 62.99 136.41 62.96 136.10 62.94 C 132.59 58.99 129.76 54.50 126.42 50.42 C 126.43 54.62 126.44 58.82 126.42 63.03 C 125.90 63.00 124.87 62.96 124.35 62.93 C 124.41 58.34 124.20 53.74 124.40 49.16 Z" />
<path fill="#000000" d=" M 153.06 48.53 C 153.75 48.54 155.15 48.55 155.85 48.55 C 158.76 52.82 161.92 56.91 165.03 61.03 C 168.90 56.74 171.13 50.52 176.61 48.02 C 178.32 52.77 177.05 58.02 177.42 62.97 C 176.90 62.98 175.86 63.00 175.33 63.01 C 175.36 58.81 175.36 54.60 175.32 50.39 C 171.66 54.63 168.86 59.58 164.85 63.51 C 162.77 60.87 160.75 58.18 158.80 55.44 C 157.36 53.70 156.04 51.87 154.72 50.04 C 154.58 54.13 154.87 58.23 154.61 62.30 C 154.27 62.64 153.59 63.31 153.25 63.64 C 152.88 58.61 153.14 53.57 153.06 48.53 Z" />
<path fill="#000000" d=" M 181.05 48.54 C 186.53 49.17 192.54 47.27 197.64 49.71 C 192.74 50.25 187.80 49.92 182.89 50.00 C 182.90 51.48 182.91 52.96 182.92 54.44 C 187.27 54.66 191.63 54.53 195.99 54.58 L 196.01 55.98 C 191.66 55.93 187.31 55.96 182.96 55.93 C 182.94 57.70 182.93 59.48 182.93 61.25 C 187.23 61.44 191.54 61.16 195.84 61.37 C 196.29 61.67 197.20 62.26 197.66 62.56 C 192.16 63.32 186.59 62.86 181.05 62.93 C 181.07 58.13 181.06 53.34 181.05 48.54 Z" />
<path fill="#000000" d=" M 199.65 48.60 C 204.62 48.72 209.65 48.16 214.58 48.90 C 217.41 49.22 216.87 52.50 216.99 54.54 C 216.46 54.97 215.41 55.83 214.88 56.25 C 216.86 57.96 216.78 60.50 216.85 62.89 C 216.40 62.92 215.50 62.98 215.04 63.00 C 215.05 61.59 215.07 60.17 215.08 58.76 C 211.39 55.42 206.01 57.45 201.52 57.06 C 201.45 59.03 201.42 61.01 201.40 62.99 L 199.56 63.00 C 199.56 58.20 199.48 53.40 199.65 48.60 Z" />
<path fill="#000000" d=" M 253.23 50.99 C 253.92 49.78 254.97 48.87 256.02 47.98 C 257.44 49.16 258.91 50.37 259.77 52.05 C 261.87 55.94 264.79 59.37 266.45 63.51 C 264.34 63.18 263.44 61.32 262.44 59.71 C 258.41 59.72 254.37 59.69 250.34 59.69 C 249.03 61.24 247.84 63.10 245.69 63.52 C 247.94 59.19 250.84 55.24 253.23 50.99 Z" />
<path fill="#000000" d=" M 39.62 49.73 C 41.44 50.83 43.21 51.99 44.96 53.20 C 45.73 54.52 46.42 55.89 47.04 57.29 C 44.59 57.79 42.09 57.83 39.60 57.87 C 39.60 55.16 39.59 52.44 39.62 49.73 Z" />
<path fill="#ffffff" d=" M 104.66 49.91 C 109.09 49.66 113.53 49.56 117.95 50.01 C 119.23 53.57 119.64 57.55 118.05 61.10 C 113.36 61.74 108.59 61.79 103.91 61.06 C 102.93 57.38 102.11 53.17 104.66 49.91 Z" />
<path fill="#ffffff" d=" M 201.41 49.97 C 205.52 50.09 209.64 49.84 213.74 50.09 C 216.01 51.24 214.90 53.78 214.04 55.47 C 209.85 55.61 205.66 55.60 201.47 55.50 C 201.44 53.66 201.43 51.81 201.41 49.97 Z" />
<path fill="#ffffff" d=" M 253.15 54.45 C 254.19 52.98 255.15 51.46 256.14 49.96 C 258.07 52.68 259.86 55.50 261.63 58.33 C 258.09 58.30 254.56 58.30 251.02 58.25 C 251.73 56.98 252.45 55.72 253.15 54.45 Z" />
</svg>
